<svg width="56" height="31" viewBox="0 0 56 31" fill="none" xmlns="http://www.w3.org/2000/svg">
<rect x="0.309753" y="0.925476" width="25.0303" height="29.3344" fill="black"/>
<path d="M15.6703 8.37467L15.8686 8.60712C16.0001 8.76119 16.0001 9.01101 15.8686 9.16511L10.3842 15.5927L15.8686 22.0203C16.0001 22.1744 16.0001 22.4242 15.8686 22.5783L15.6703 22.8108C15.5388 22.9648 15.3256 22.9648 15.1942 22.8108L9.27323 15.8717C9.14176 15.7176 9.14176 15.4678 9.27323 15.3137L15.1942 8.37467C15.3256 8.22057 15.5388 8.22057 15.6703 8.37467Z" fill="white"/>
<rect x="30.5546" y="0.925476" width="25.0303" height="29.3344" fill="black"/>
<path d="M39.7164 8.37467L39.5181 8.60712C39.3866 8.76119 39.3866 9.01101 39.5181 9.16511L45.0025 15.5927L39.5181 22.0203C39.3866 22.1744 39.3866 22.4242 39.5181 22.5783L39.7164 22.8108C39.8479 22.9648 40.0611 22.9648 40.1925 22.8108L46.1135 15.8717C46.2449 15.7176 46.2449 15.4678 46.1135 15.3137L40.1925 8.37467C40.0611 8.22057 39.8479 8.22057 39.7164 8.37467Z" fill="white"/>
</svg>
