<svg width="48" height="48" viewBox="0 0 48 48" fill="none" xmlns="http://www.w3.org/2000/svg">
<rect width="48" height="48" fill="black"/>
<path fill-rule="evenodd" clip-rule="evenodd" d="M14.8757 17.7782C13.2882 17.7782 12 16.4633 12 14.8757C12 13.2882 13.2882 12 14.8757 12C16.4633 12 17.7514 13.2882 17.7514 14.8757C17.7514 16.4633 16.4633 17.7782 14.8757 17.7782ZM17.3612 35.9465H12.3955V19.959H17.3612V35.9465ZM30.9915 35.9465H35.9465H35.9519V27.1644C35.9519 22.8668 35.0272 19.5581 30.0027 19.5581C27.5866 19.5581 25.967 20.8837 25.3042 22.1399H25.2347V19.959H20.4722V35.9465H25.4325V28.0303C25.4325 25.9457 25.8281 23.9305 28.4098 23.9305C30.9541 23.9305 30.9915 26.3091 30.9915 28.1639V35.9465Z" fill="white"/>
</svg>
