<svg width="48" height="48" viewBox="0 0 48 48" fill="none" xmlns="http://www.w3.org/2000/svg">
<rect width="48" height="48" fill="black"/>
<path fill-rule="evenodd" clip-rule="evenodd" d="M35.9157 19.0517C35.8247 17.1291 35.3856 15.4261 33.9775 14.023C32.5747 12.6199 30.8721 12.1807 28.9499 12.0843C26.9689 11.9719 21.0311 11.9719 19.0501 12.0843C17.1333 12.1754 15.4307 12.6145 14.0225 14.0176C12.6144 15.4207 12.1807 17.1237 12.0843 19.0463C11.9719 21.0278 11.9719 26.9669 12.0843 28.9483C12.1753 30.8709 12.6144 32.5739 14.0225 33.977C15.4307 35.3801 17.1279 35.8193 19.0501 35.9157C21.0311 36.0281 26.9689 36.0281 28.9499 35.9157C30.8721 35.8246 32.5747 35.3855 33.9775 33.977C35.3803 32.5739 35.8193 30.8709 35.9157 28.9483C36.0281 26.9669 36.0281 21.0331 35.9157 19.0517ZM30.4062 19.0302C31.1987 19.0302 31.8412 18.3929 31.8412 17.595C31.8412 16.8024 31.1987 16.1598 30.4062 16.1598C29.6138 16.1598 28.9713 16.8024 28.9713 17.595C28.9713 18.3876 29.6085 19.0302 30.4062 19.0302ZM24.0027 17.8467C20.5974 17.8467 17.8508 20.594 17.8508 24C17.8508 27.406 20.5974 30.1533 24.0027 30.1533C27.4079 30.1533 30.1546 27.406 30.1546 24C30.1546 20.594 27.4079 17.8467 24.0027 17.8467ZM24.0027 28.0004C21.8021 28.0004 20.0031 26.2064 20.0031 24C20.0031 21.7936 21.7968 19.9996 24.0027 19.9996C26.2086 19.9996 28.0022 21.7936 28.0022 24C28.0022 26.2064 26.2032 28.0004 24.0027 28.0004ZM31.0755 33.3558C32.1303 32.9327 32.9388 32.1241 33.3564 31.0744C33.8937 29.724 33.8638 26.77 33.8444 24.8551C33.8412 24.5374 33.8383 24.2484 33.8383 24C33.8383 23.7516 33.8412 23.4626 33.8444 23.145C33.8638 21.2312 33.8937 18.2806 33.3564 16.9256C32.9334 15.8706 32.1249 15.0619 31.0755 14.6442C29.7211 14.1097 26.7535 14.1382 24.8396 14.1565C24.5291 14.1595 24.2463 14.1622 24.0027 14.1622C23.7543 14.1622 23.4654 14.1593 23.1479 14.1561C21.2345 14.1367 18.2845 14.1068 16.9298 14.6442C15.8751 15.0673 15.0666 15.8759 14.649 16.9256C14.1146 18.2803 14.143 21.2486 14.1614 23.1629C14.1644 23.4735 14.1671 23.7563 14.1671 24C14.1671 24.2484 14.1642 24.5374 14.161 24.855C14.1416 26.7688 14.1117 29.7194 14.649 31.0744C15.0719 32.1294 15.8804 32.9381 16.9298 33.3558C18.2842 33.8903 21.2519 33.8618 23.1658 33.8435C23.4763 33.8405 23.759 33.8378 24.0027 33.8378C24.2511 33.8378 24.54 33.8407 24.8575 33.8439C26.7709 33.8633 29.7208 33.8932 31.0755 33.3558Z" fill="white"/>
</svg>
