<svg width="153" height="135" viewBox="0 0 153 135" fill="none" xmlns="http://www.w3.org/2000/svg">
<path fill-rule="evenodd" clip-rule="evenodd" d="M0.0432281 68.1538C0.0432281 97.8421 3.48249 122.529 7.98059 127.535V84.4062H5.59938V67.8204H7.98059V54.5488C7.98059 39.62 9.51489 31.3296 11.685 31.3296C12.3723 31.3296 13.1137 31.9914 13.8011 32.6533V47.9154H12.5843C11.4199 47.9154 11.1555 51.563 11.1555 56.2108V67.8204H13.6955L13.2724 84.4062H11.1555V127.535C15.6536 122.529 19.0929 97.8471 19.0929 68.1538C19.0929 35.1265 14.8067 8.10547 9.56807 8.10547C4.32941 8.10547 0.0432281 35.1265 0.0432281 68.1538Z" fill="white"/>
<path d="M80.1354 43.2311C79.9886 43.2308 79.8731 43.1379 79.7875 43.0283C79.6997 42.916 79.6216 42.7597 79.551 42.5727C79.4091 42.1971 79.2842 41.6622 79.1804 41.0114C78.9724 39.7074 78.8446 37.9102 78.8446 35.9255C78.8446 33.9408 78.9724 32.1436 79.1804 30.8396C79.2842 30.1887 79.4091 29.6538 79.551 29.2783C79.6216 29.0913 79.6997 28.935 79.7875 28.8226C79.8732 28.7129 79.9889 28.6199 80.136 28.6199C80.2831 28.6199 80.3987 28.7129 80.4845 28.8226C80.5723 28.935 80.6504 29.0913 80.721 29.2783C80.8629 29.6538 80.9878 30.1887 81.0916 30.8396C81.2996 32.1436 81.4273 33.9408 81.4273 35.9255L80.1354 43.2311ZM80.1354 43.2311C80.2769 43.2319 80.3902 43.1451 80.4756 43.0392C80.5627 42.931 80.6412 42.7788 80.7129 42.5928C80.8571 42.2191 80.985 41.6801 81.0916 41.0115C81.1985 40.3412 81.283 39.5471 81.3405 38.6751C81.398 37.8029 81.4275 36.8685 81.4273 35.9255L80.1354 43.2311ZM84.3632 43.1718V43.172C84.428 50.3978 84.4267 57.5776 84.4255 64.803C84.4253 65.8075 84.4251 66.8128 84.4251 67.8193C84.4251 68.9449 84.4254 70.0691 84.4256 71.1922C84.4273 78.2974 84.429 85.3596 84.3632 92.4665L84.3632 92.4667C84.2893 102.026 83.9438 110.487 82.8281 117.481C82.2712 120.973 81.6566 123.25 80.9965 124.709C80.3368 126.167 79.6429 126.783 78.9391 126.997L78.9391 126.997L78.9328 126.999C77.8066 127.396 76.6891 127.389 75.5345 127.381C75.3742 127.38 75.2131 127.379 75.0511 127.379C74.8896 127.379 74.7288 127.38 74.5686 127.381C73.4157 127.389 72.2978 127.396 71.1694 126.999L71.1694 126.999L71.1632 126.997C70.4592 126.783 69.766 126.17 69.1067 124.714C68.4469 123.258 67.8323 120.98 67.2742 117.481C66.1609 110.502 65.813 102.026 65.7391 92.4667L65.7391 92.4665C65.6743 85.2404 65.6756 78.0489 65.6768 70.8304C65.677 69.8273 65.6772 68.8236 65.6772 67.8193C65.6772 66.8148 65.677 65.8112 65.6768 64.8083C65.6756 57.5926 65.6743 50.4111 65.7391 43.172L65.7391 43.1718C65.813 33.6124 66.1585 25.1517 67.2742 18.1573C67.8311 14.6658 68.4457 12.3884 69.1058 10.9298C69.7655 9.47179 70.4594 8.85556 71.1632 8.64184L71.1632 8.64198L71.1695 8.63977C72.2957 8.24253 73.4132 8.25002 74.5677 8.25776C74.7281 8.25883 74.8892 8.25991 75.0511 8.25991C75.2128 8.25991 75.3736 8.25883 75.5337 8.25776C76.6867 8.25002 77.8045 8.24252 78.9329 8.6398L78.9329 8.63994L78.9391 8.64184C79.6431 8.85562 80.3363 9.46835 80.9956 10.9242C81.6554 12.381 82.27 14.6583 82.8281 18.1573C83.9414 25.1368 84.2893 33.6124 84.3632 43.1718ZM72.0225 67.8193C72.0225 62.3423 72.3791 57.3723 72.9529 53.7745C73.24 51.9745 73.5805 50.5248 73.955 49.5285C74.1426 49.0295 74.3355 48.653 74.5287 48.4041C74.724 48.1522 74.8989 48.0562 75.0488 48.0562C75.1986 48.0562 75.3735 48.1522 75.5689 48.4041C75.762 48.653 75.9549 49.0295 76.1425 49.5285C76.517 50.5248 76.8575 51.9745 77.1446 53.7745C77.7185 57.3723 78.075 62.3423 78.075 67.8193C78.075 73.2963 77.7185 78.2663 77.1446 81.864C76.8575 83.6641 76.517 85.1138 76.1425 86.1101C75.9549 86.6091 75.762 86.9856 75.5689 87.2345C75.3735 87.4864 75.1986 87.5824 75.0488 87.5824C74.8989 87.5824 74.724 87.4864 74.5287 87.2345C74.3355 86.9856 74.1426 86.6091 73.955 86.1101C73.5805 85.1138 73.24 83.6641 72.9529 81.864C72.3791 78.2663 72.0225 73.2963 72.0225 67.8193ZM70.0117 67.8193C70.0117 76.3023 70.5576 83.9703 71.4429 89.5206C71.8854 92.2946 72.4137 94.5465 73.0039 96.1083C73.2987 96.8883 73.6122 97.5051 73.9441 97.9296C74.2741 98.3514 74.6426 98.6082 75.0488 98.6082C75.4549 98.6082 75.8235 98.3514 76.1534 97.9296C76.4853 97.5051 76.7988 96.8883 77.0936 96.1083C77.6839 94.5465 78.2121 92.2946 78.6546 89.5206C79.5399 83.9703 80.0858 76.3023 80.0858 67.8193C80.0858 59.3363 79.5399 51.6683 78.6546 46.118C78.2121 43.344 77.6839 41.0921 77.0936 39.5303C76.7988 38.7502 76.4853 38.1335 76.1534 37.709C75.8235 37.2871 75.4549 37.0303 75.0488 37.0303C74.6426 37.0303 74.2741 37.2871 73.9441 37.709C73.6122 38.1335 73.2987 38.7502 73.0039 39.5303C72.4137 41.0921 71.8854 43.344 71.4429 46.118C70.5576 51.6683 70.0117 59.3363 70.0117 67.8193Z" fill="white" stroke="black" stroke-width="0.3"/>
<path d="M141.725 0.641357C135.808 0.641357 131.01 30.7221 131.01 67.8207C131.01 104.919 135.808 135 141.725 135C147.643 135 152.441 104.919 152.441 67.8207C152.441 30.7221 147.643 0.641357 141.725 0.641357ZM146.875 51.2808C146.882 51.9855 146.882 52.7203 146.882 53.4401C146.882 75.4533 144.208 100.811 139.321 100.811C137.815 100.811 136.418 98.0664 135.241 93.3428C135.456 93.4928 135.662 93.5527 135.882 93.5527C137.126 93.5527 138.269 90.9136 139.18 86.4449C138.013 86.295 137.032 81.4965 136.698 74.8985C137.107 75.2734 137.475 75.2734 137.896 74.5986C137.295 73.8331 136.755 71.7867 136.367 68.8071C135.979 65.8275 135.768 62.0985 135.77 58.2536V58.0437C136.121 59.2883 136.535 60.0531 136.968 60.158C136.604 58.6374 136.305 56.5773 136.099 54.1603C135.892 51.7434 135.784 49.0442 135.784 46.3023C135.784 43.1982 135.913 40.3641 136.145 37.9049C136.812 43.0533 137.645 47.2641 138.588 50.2636C139.532 53.263 140.566 54.9839 141.622 55.3145C141.247 43.993 142.596 34.8308 144.217 34.8308C144.983 34.8308 145.672 36.8402 146.157 40.0792C146.758 39.3744 147.332 37.9649 147.844 36.0754C147.645 39.9293 147.229 43.1833 146.676 45.2376C147.212 44.8777 147.729 43.948 148.207 42.6434C147.846 45.9724 147.394 48.9265 146.875 51.2808V51.2808Z" fill="white"/>
</svg>
